<svg xmlns="http://www.w3.org/2000/svg" width="640" height="512" style=""><rect id="backgroundrect" width="100%" height="100%" x="0" y="0" fill="none" stroke="none"/><g class="currentLayer" style=""><title>Layer 1</title><path d="M560.7052627563477,194.82105269432068 l-2.5,-3.9 c-4.1,0.30000000000000004 -8.1,0.30000000000000004 -12.2,0 l-2.5,4 c-5.8,9.2 -17.1,13.4 -27.5,10.1 c-13.8,-4.3 -23,-8.8 -34.3,-18.1 c-9,-7.4 -11.2,-20.3 -5.4,-30.4 l2.5,-4.3 c-2.3,-3.4 -4.3,-6.9 -6.1,-10.6 h-9.1 c-11.6,0 -21.4,-8.2 -23.6,-19.6 c-2.6,-13.7 -2.7,-24.2 0.1,-38.5 c2.1,-11.3 12.1,-19.5 23.6,-19.5 h9 c1.8,-3.7 3.8,-7.2 6.1,-10.6 l-2.6,-4.5 c-5.8,-10 -3.6,-22.7 5.2,-30.3 c10.6,-9.1 19.7,-14.3 33.5,-19 c10.8,-3.7 22.7,0.7000000000000001 28.5,10.6 l2.6,4.4 c4.1,-0.30000000000000004 8.1,-0.30000000000000004 12.2,0 l2.6,-4.4 c5.8,-9.9 17.7,-14.3 28.6,-10.5 c13.3,4.5 22.3,9.6 33.5,19.1 c8.8,7.5 10.9,20.2 5.1,30.2 l-2.6,4.4 c2.3,3.4 4.3,6.9 6.1,10.6 h5.1 c11.6,0 21.4,8.2 23.6,19.6 c2.6,13.7 2.7,24.2 -0.1,38.5 c-2.1,11.3 -12.1,19.5 -23.6,19.5 h-5 c-1.8,3.7 -3.8,7.2 -6.1,10.6 l2.5,4.3 c5.9,10.2 3.5,23.1 -5.5,30.5 c-10.7,8.8 -19.9,13.4 -34,17.9 c-10.5,3.3 -21.9,-0.8 -27.7,-10.1 zm12.2,-34.5 l10.6,18.3 c6.7,-2.8 12.9,-6.4 18.7,-10.8 l-10.6,-18.3 l6.4,-7.5 c4.8,-5.7 8.6,-12.1 11,-19.1 l3.3,-9.3 h21.1 c0.9,-7.1 0.9,-14.4 0,-21.5 h-21.1 l-3.3,-9.3 c-2.5,-7 -6.2,-13.4 -11,-19.1 l-6.4,-7.5 L602.1052627563477,37.82105269432068 c-5.7,-4.4 -12,-8 -18.7,-10.8 l-10.6,18.3 l-9.7,-1.8 c-7.3,-1.4 -14.8,-1.4 -22.1,0 l-9.7,1.8 l-10.6,-18.3 C514.1052627563477,29.72105269432068 507.80526275634764,33.42105269432068 502.10526275634766,37.82105269432068 l10.6,18.3 l-6.4,7.5 c-4.8,5.7 -8.6,12.1 -11,19.1 l-3.3,9.3 h-21.1 c-0.9,7.1 -0.9,14.4 0,21.5 h21.1 l3.3,9.3 c2.5,7 6.2,13.4 11,19.1 l6.4,7.5 l-10.6,18.4 c5.7,4.4 12,8 18.7,10.8 l10.6,-18.3 l9.7,1.8 c7.3,1.4 14.8,1.4 22.1,0 l9.7,-1.8 zM167.40526275634767,452.82105269432066 v-31.6 c-12.9,-5.5 -25.1,-12.6 -36.4,-21.1 l-27.5,15.9 c-9.8,5.6 -22.1,3.7 -29.7,-4.6 c-24.2,-26.3 -38.5,-49.5 -50.6,-88.1 c-3.4,-10.7 1.1,-22.3 10.8,-28 L61.30526275634766,279.4210526943207 c-1.7000000000000002,-14 -1.7000000000000002,-28.1 0,-42.1 l-27.3,-15.8 c-9.7,-5.6 -14.2,-17.3 -10.8,-28 c12.1,-38.4 26.2,-61.6 50.6,-88.1 c7.6,-8.3 20,-10.2 29.7,-4.6 l27.4,15.9 c11.3,-8.5 23.5,-15.5 36.4,-21.1 V64.02105269432067 c0,-11.3 7.8,-21 18.8,-23.4 c34.7,-7.8 62,-8.7 101.7,0 c11,2.4 18.9,12.2 18.9,23.4 v31.6 c12.9,5.5 25.1,12.6 36.4,21 l27.4,-15.8 c9.8,-5.6 22.2,-3.7 29.8,4.6 c26.9,29.6 41.5,55.9 52.1,88.5 c3.4,10.5 -0.8,21.9 -10.2,27.7 l-25,15.8 c1.7000000000000002,14 1.7000000000000002,28.1 0,42.1 l28.1,17.5 c8.6,5.4 13,15.6 10.8,25.5 c-6.9,31.3 -33,64.6 -55.9,89.2 c-7.6,8.2 -19.9,10 -29.6,4.4 L343.10526275634766,400.2210526943207 c-11.3,8.5 -23.5,15.5 -36.4,21.1 v31.6 c0,11.2 -7.8,21 -18.8,23.4 c-37.5,8.3 -64.9,8.2 -101.9,0 c-10.8,-2.5 -18.6,-12.3 -18.6,-23.5 zm32,-6.2 c24.8,5 50.5,5 75.3,0 v-47.7 l10.7,-3.8 c16.8,-5.9 32.3,-14.9 45.9,-26.5 l8.6,-7.4 l41.4,23.9 c16.8,-19.1 34,-41.3 42.1,-65.2 l-41.4,-23.9 l2.1,-11.1 c3.2,-17.6 3.2,-35.5 0,-53.1 l-2.1,-11.1 l41.4,-23.9 c-8.1,-23.9 -25.3,-46.2 -42.1,-65.2 l-41.4,23.9 l-8.6,-7.4 c-13.6,-11.7 -29,-20.6 -45.9,-26.5 l-10.7,-3.8 V70.22105269432068 c-24.8,-5 -50.5,-5 -75.3,0 v47.7 l-10.7,3.8 c-16.8,5.9 -32.3,14.9 -45.9,26.5 l-8.6,7.4 l-41.4,-23.9 A192.19,192.19 0 0 0 55.105262756347656,196.92105269432068 l41.4,23.9 l-2.1,11.1 c-3.2,17.6 -3.2,35.5 0,53.1 l2.1,11.1 L55.105262756347656,320.0210526943207 c8.1,23.9 20.9,46.2 37.7,65.2 l41.4,-23.9 l8.6,7.4 c13.6,11.7 29,20.6 45.9,26.5 l10.7,3.8 v47.6 zm38.4,-105.3 c-45.7,0 -82.9,-37.2 -82.9,-82.9 s37.2,-82.9 82.9,-82.9 s82.9,37.2 82.9,82.9 s-37.2,82.9 -82.9,82.9 zm0,-133.8 c-28,0 -50.9,22.8 -50.9,50.9 s22.8,50.9 50.9,50.9 c28,0 50.9,-22.8 50.9,-50.9 s-22.8,-50.9 -50.9,-50.9 zm322.9,291.7 l-2.5,-3.9 c-4.1,0.30000000000000004 -8.1,0.30000000000000004 -12.2,0 l-2.5,4 c-5.8,9.2 -17.1,13.4 -27.5,10.1 c-13.8,-4.3 -23,-8.8 -34.3,-18.1 c-9,-7.4 -11.2,-20.3 -5.4,-30.4 l2.5,-4.3 c-2.3,-3.4 -4.3,-6.9 -6.1,-10.6 h-9.1 c-11.6,0 -21.4,-8.2 -23.6,-19.6 c-2.6,-13.7 -2.7,-24.2 0.1,-38.5 c2.1,-11.3 12.1,-19.5 23.6,-19.5 h9 c1.8,-3.7 3.8,-7.2 6.1,-10.6 l-2.6,-4.5 c-5.8,-10 -3.6,-22.7 5.2,-30.3 c10.6,-9.1 19.7,-14.3 33.5,-19 c10.8,-3.7 22.7,0.7000000000000001 28.5,10.6 l2.6,4.4 c4.1,-0.30000000000000004 8.1,-0.30000000000000004 12.2,0 l2.6,-4.4 c5.8,-9.9 17.7,-14.3 28.6,-10.5 c13.3,4.5 22.3,9.6 33.5,19.1 c8.8,7.5 10.9,20.2 5.1,30.2 l-2.6,4.4 c2.3,3.4 4.3,6.9 6.1,10.6 h5.1 c11.6,0 21.4,8.2 23.6,19.6 c2.6,13.7 2.7,24.2 -0.1,38.5 c-2.1,11.3 -12.1,19.5 -23.6,19.5 h-5 c-1.8,3.7 -3.8,7.2 -6.1,10.6 l2.5,4.3 c5.9,10.2 3.5,23.1 -5.5,30.5 c-10.7,8.8 -19.9,13.4 -34,17.9 c-10.5,3.2 -21.9,-0.9 -27.7,-10.1 zm12.2,-34.6 l10.6,18.3 c6.7,-2.8 12.9,-6.4 18.7,-10.8 l-10.6,-18.3 l6.4,-7.5 c4.8,-5.7 8.6,-12.1 11,-19.1 l3.3,-9.3 h21.1 c0.9,-7.1 0.9,-14.4 0,-21.5 h-21.1 l-3.3,-9.3 c-2.5,-7 -6.2,-13.4 -11,-19.1 l-6.4,-7.5 l10.6,-18.3 c-5.7,-4.4 -12,-8 -18.7,-10.8 l-10.6,18.3 l-9.7,-1.8 c-7.3,-1.4 -14.8,-1.4 -22.1,0 l-9.7,1.8 l-10.6,-18.3 c-6.7,2.8 -12.9,6.4 -18.7,10.8 l10.6,18.3 l-6.4,7.5 c-4.8,5.7 -8.6,12.1 -11,19.1 l-3.3,9.3 h-21.1 c-0.9,7.1 -0.9,14.4 0,21.5 h21.1 l3.3,9.3 c2.5,7 6.2,13.4 11,19.1 l6.4,7.5 l-10.6,18.3 c5.7,4.4 12,8 18.7,10.8 l10.6,-18.3 l9.7,1.8 c7.3,1.4 14.8,1.4 22.1,0 l9.7,-1.8 zM582.1052627563477,406.4210526943207 c0,-17.7 -14.3,-32 -32,-32 s-32,14.3 -32,32 s14.3,32 32,32 s32,-14.3 32,-32 zm0,-304.3 c0,-17.7 -14.3,-32 -32,-32 s-32,14.3 -32,32 s14.3,32 32,32 s32,-14.4 32,-32 z" id="svg_1" class="selected" fill="#ffffff" fill-opacity="1"/></g></svg>