<svg xmlns="http://www.w3.org/2000/svg" width="512" height="512"><rect id="backgroundrect" width="100%" height="100%" x="0" y="0" fill="none" stroke="none"/><g class="currentLayer" style=""><title>Layer 1</title><path d="M389.02631574869156,46.3 C458.42631574869154,90.3 504.52631574869156,167.8 504.52631574869156,256 c0,136.8 -110.8,247.7 -247.5,248 C120.52631574869156,504.3 8.726315748691558,393 8.526315748691559,256.4 C8.42631574869156,168 54.52631574869156,90.3 124.02631574869156,46.3 c5.8,-3.7 13.5,-1.8 16.9,4.2 l3.9,7 c3.1,5.6 1.3,12.6 -4.1,16 C80.42631574869156,112 40.52631574869156,179.6 40.52631574869156,256 c0,119.9 97.3,216 216,216 c119.9,0 216,-97.3 216,-216 c0,-77 -40.1,-144.2 -100.3,-182.4 c-5.4,-3.4 -7.2,-10.5 -4.1,-16 l3.9,-7 c3.4,-6.1 11.2,-7.9 17,-4.3 zM272.52631574869156,276 V12 c0,-6.6 -5.4,-12 -12,-12 h-8 c-6.6,0 -12,5.4 -12,12 v264 c0,6.6 5.4,12 12,12 h8 c6.6,0 12,-5.4 12,-12 z" id="svg_1" class="selected" fill="#ffffff" fill-opacity="1"/></g></svg>