<svg xmlns="http://www.w3.org/2000/svg" width="448" height="512" style=""><rect id="backgroundrect" width="100%" height="100%" x="0" y="0" fill="none" stroke="none"/><g class="currentLayer" style=""><title>Layer 1</title><path d="M312.5473685026169,288 c-28.7,0 -42.5,16 -89.6,16 c-47.1,0 -60.8,-16 -89.6,-16 C59.147368502616885,288 -1.0526314973831177,348.2 -1.0526314973831177,422.4 V464 c0,26.5 21.5,48 48,48 h352 c26.5,0 48,-21.5 48,-48 v-41.6 c0,-74.2 -60.2,-134.4 -134.4,-134.4 zM414.9473685026169,464 c0,8.8 -7.2,16 -16,16 H46.94736850261688 c-8.8,0 -16,-7.2 -16,-16 v-41.6 C30.947368502616882,365.9 76.84736850261689,320 133.3473685026169,320 c19.6,0 39.1,16 89.6,16 c50.4,0 70,-16 89.6,-16 c56.5,0 102.4,45.9 102.4,102.4 V464 zM222.94736850261688,256 c70.7,0 128,-57.3 128,-128 S293.64736850261687,0 222.94736850261688,0 S94.94736850261688,57.3 94.94736850261688,128 s57.3,128 128,128 zm0,-224 c52.9,0 96,43.1 96,96 s-43.1,96 -96,96 s-96,-43.1 -96,-96 s43.1,-96 96,-96 z" id="svg_1" class="selected" fill="#ffffff" fill-opacity="1"/></g></svg>