<?xml version="1.0" encoding="utf-8"?>
<!-- Generator: Adobe Illustrator 24.0.2, SVG Export Plug-In . SVG Version: 6.00 Build 0)  -->
<svg version="1.1" id="Layer_1" xmlns="http://www.w3.org/2000/svg" xmlns:xlink="http://www.w3.org/1999/xlink" x="0px" y="0px"
	 viewBox="0 0 640 512" style="enable-background:new 0 0 640 512;" xml:space="preserve">
<path d="M536,480H104c-4.4,0-8,3.6-8,8v16c0,4.4,3.6,8,8,8h432c4.4,0,8-3.6,8-8v-16C544,483.6,540.4,480,536,480z"/>
<path d="M608,0H32C14.3,0,0,14.3,0,32v352c0,17.7,14.3,32,32,32h576c17.7,0,32-14.3,32-32V32C640,14.3,625.7,0,608,0z M608,384H32
	V222.5h175.3l-72,71c-3.9,3.9-3.9,10.2,0,14l5.8,5.8c3.9,3.9,10.2,3.9,14,0l98.9-97.9c3.9-3.9,3.9-10.2,0-14l-98.8-98.9
	c-3.9-3.9-10.2-3.9-14,0l-5.8,5.8c-3.9,3.9-3.9,10.2,0,14l71.9,72H32V32h576V384z"/>
</svg>
